<?xml version="1.0" encoding="UTF-8"?>
<svg width="276px" height="179px" viewBox="0 0 276 179" version="1.1" xmlns="http://www.w3.org/2000/svg" xmlns:xlink="http://www.w3.org/1999/xlink">
    <!-- Generator: Sketch 42 (36781) - http://www.bohemiancoding.com/sketch -->
    <title>Group</title>
    <desc>Created with Sketch.</desc>
    <defs>
        <rect id="path-1" x="0" y="0" width="276" height="179"></rect>
        <mask id="mask-2" maskContentUnits="userSpaceOnUse" maskUnits="objectBoundingBox" x="0" y="0" width="276" height="179" fill="white">
            <use xlink:href="#path-1"></use>
        </mask>
    </defs>
    <g id="Page-1" stroke="none" stroke-width="1" fill="none" fill-rule="evenodd">
        <g id="Group">
            <path d="M55.47913,52.1483931 C57.2744095,52.1483931 58.6849651,51.7643207 59.7108392,50.9961645 C60.7367132,50.2280083 61.2496425,49.1611407 61.2496425,47.7955297 L61.2496425,47.6675043 C61.2496425,46.2165426 60.7367132,45.1390063 59.7108392,44.4348631 C58.6849651,43.7307199 57.2957816,43.3786536 55.5432468,43.3786536 L49.0033326,43.3786536 L49.0033326,52.1483931 L55.47913,52.1483931 Z M34,30.8321651 L55.9279476,30.8321651 C59.9459542,30.8321651 63.2479367,31.2909181 65.8339941,32.208438 C68.4200516,33.1259579 70.5038269,34.374193 72.0853827,35.9531808 C73.4532147,37.3187918 74.4790734,38.8550812 75.1629894,40.562095 C75.8469054,42.2691087 76.1888583,44.2748198 76.1888583,46.5792885 L76.1888583,46.7073138 C76.1888583,49.9933154 75.3980922,52.7671712 73.8165365,55.0289644 C72.2349807,57.2907577 70.0764031,59.0830953 67.3407391,60.4060309 L77.7917784,75.6410528 L60.6725912,75.6410528 L52.2091729,62.8385134 L49.0033326,62.8385134 L49.0033326,75.6410528 L34,75.6410528 L34,30.8321651 Z M114.707029,30.8321651 L152.984763,30.8321651 L152.984763,43.1226028 L129.453895,43.1226028 L129.453895,47.6675043 L151.381842,47.6675043 L151.381842,58.48565 L129.453895,58.48565 L129.453895,63.350615 L153.305347,63.350615 L153.305347,75.6410528 L114.707029,75.6410528 L114.707029,30.8321651 Z M211.507377,76.4732178 C206.933689,76.4732178 202.669964,75.8437659 198.716074,74.5848433 C194.762185,73.3259206 191.353342,71.4375649 188.489444,68.9197196 L196.504045,59.3818278 C198.940495,61.259543 201.505142,62.6037961 204.198061,63.4146277 C206.890981,64.2254592 209.562487,64.6308689 212.212662,64.6308689 C213.580494,64.6308689 214.563609,64.4601701 215.162035,64.1187674 C215.760462,63.7773646 216.05967,63.3079429 216.05967,62.710488 L216.05967,62.5824626 C216.05967,61.9423325 215.621543,61.4088987 214.745276,60.9821452 C213.869008,60.5553918 212.234046,60.1073074 209.84034,59.6378786 C207.3184,59.1257745 204.914044,58.5283286 202.627199,57.8455231 C200.340355,57.1627176 198.331382,56.2878861 196.60022,55.2210025 C194.869057,54.1541189 193.49056,52.8205344 192.464686,51.220209 C191.438812,49.6198835 190.925882,47.6248411 190.925882,45.2350218 L190.925882,45.1069964 C190.925882,42.9732292 191.342637,40.9888554 192.17616,39.1538156 C193.009683,37.3187758 194.22789,35.7184744 195.830818,34.3528634 C197.433746,32.9872524 199.421347,31.9203847 201.793681,31.1522285 C204.166015,30.3840723 206.890952,30 209.968574,30 C214.328538,30 218.14345,30.5120965 221.413424,31.5363047 C224.683397,32.560513 227.622055,34.0968023 230.229484,36.1452189 L222.920169,46.259225 C220.782931,44.7229126 218.528179,43.6027016 216.155846,42.8985584 C213.783512,42.1944152 211.550132,41.8423489 209.455639,41.8423489 C208.344276,41.8423489 207.521452,42.0130477 206.987142,42.3544505 C206.452833,42.6958532 206.185682,43.1439376 206.185682,43.6987171 L206.185682,43.8267425 C206.185682,44.1254699 206.27117,44.4028555 206.442149,44.6589076 C206.613128,44.9149596 206.923023,45.1603392 207.371843,45.3950536 C207.820663,45.629768 208.429767,45.8538102 209.199172,46.0671869 C209.968578,46.2805636 210.951692,46.4939371 212.148545,46.7073138 C215.012443,47.219418 217.619834,47.8382012 219.970795,48.5636821 C222.321757,49.2891629 224.341416,50.2173377 226.029834,51.3482344 C227.718251,52.479131 229.021947,53.8340529 229.940959,55.4130406 C230.859971,56.9920284 231.31947,58.91239 231.31947,61.1741833 L231.31947,61.3022087 C231.31947,63.6493527 230.849285,65.7617505 229.9089,67.6394657 C228.968516,69.5171808 227.643448,71.1068136 225.933658,72.4084116 C224.223868,73.7100096 222.140093,74.7128651 219.68227,75.4170083 C217.224447,76.1211515 214.49951,76.4732178 211.507377,76.4732178 Z M55.47913,126.163074 C57.2744095,126.163074 58.6849651,125.779001 59.7108392,125.010845 C60.7367132,124.242689 61.2496425,123.175821 61.2496425,121.81021 L61.2496425,121.682185 C61.2496425,120.231223 60.7367132,119.153687 59.7108392,118.449544 C58.6849651,117.745401 57.2957816,117.393334 55.5432468,117.393334 L49.0033326,117.393334 L49.0033326,126.163074 L55.47913,126.163074 Z M34,104.846846 L55.9279476,104.846846 C59.9459542,104.846846 63.2479367,105.305599 65.8339941,106.223119 C68.4200516,107.140639 70.5038269,108.388874 72.0853827,109.967861 C73.4532147,111.333472 74.4790734,112.869762 75.1629894,114.576776 C75.8469054,116.283789 76.1888583,118.2895 76.1888583,120.593969 L76.1888583,120.721994 C76.1888583,124.007996 75.3980922,126.781852 73.8165365,129.043645 C72.2349807,131.305438 70.0764031,133.097776 67.3407391,134.420712 L77.7917784,149.655733 L60.6725912,149.655733 L52.2091729,136.853194 L49.0033326,136.853194 L49.0033326,149.655733 L34,149.655733 L34,104.846846 Z M112.302651,104.846846 L150.580384,104.846846 L150.580384,117.137283 L127.049516,117.137283 L127.049516,121.682185 L148.977464,121.682185 L148.977464,132.500331 L127.049516,132.500331 L127.049516,137.365296 L150.900968,137.365296 L150.900968,149.655733 L112.302651,149.655733 L112.302651,104.846846 Z M210.930329,137.813384 C211.998948,137.813384 213.046178,137.642686 214.072052,137.301283 L208.942708,132.94842 L215.226155,125.907023 L220.034915,130.195874 C220.248639,129.257016 220.355499,128.382185 220.355499,127.571353 L220.355499,127.443328 C220.355499,126.120392 220.131093,124.840151 219.682273,123.602566 C219.233453,122.364981 218.592291,121.266107 217.758769,120.305912 C216.925246,119.345717 215.92076,118.577572 214.745279,118.001455 C213.569798,117.425338 212.255417,117.137283 210.802095,117.137283 C209.391519,117.137283 208.109195,117.425338 206.955087,118.001455 C205.800979,118.577572 204.817864,119.345717 204.005714,120.305912 C203.193564,121.266107 202.573774,122.354312 202.146326,123.570559 C201.718879,124.786807 201.505158,126.056379 201.505158,127.379315 L201.505158,127.50734 C201.505158,128.830276 201.718879,130.110517 202.146326,131.348102 C202.573774,132.585687 203.193564,133.684561 204.005714,134.644756 C204.817864,135.604951 205.811665,136.373096 206.987145,136.949213 C208.162626,137.52533 209.477007,137.813384 210.930329,137.813384 Z M224.779559,146.583124 C222.8133,147.863384 220.654723,148.855571 218.303762,149.559714 C215.9528,150.263858 213.45227,150.615924 210.802095,150.615924 C207.33977,150.615924 204.123276,150.018478 201.152516,148.823568 C198.181756,147.628659 195.595737,145.985683 193.394382,143.894591 C191.193028,141.803499 189.472577,139.339035 188.23298,136.501124 C186.993382,133.663214 186.373592,130.622641 186.373592,127.379315 L186.373592,127.25129 C186.373592,124.007963 187.004068,120.967391 188.265038,118.12948 C189.526008,115.29157 191.257145,112.816437 193.458499,110.704007 C195.659854,108.591578 198.256559,106.927264 201.248691,105.711017 C204.240824,104.49477 207.468004,103.886655 210.930329,103.886655 C214.392654,103.886655 217.609148,104.484101 220.579908,105.679011 C223.550668,106.87392 226.136687,108.516896 228.338042,110.607988 C230.539396,112.69908 232.259847,115.163544 233.499445,118.001455 C234.739042,120.839365 235.358832,123.879938 235.358832,127.123264 L235.358832,127.25129 C235.358832,129.683784 235.006193,131.97755 234.300905,134.132654 C233.595616,136.287759 232.623188,138.282802 231.38359,140.117842 L236,144.022616 L229.716553,151 L224.779559,146.583124 Z" id="RES-REQ" fill="#000000"></path>
            <use id="Rectangle" stroke="#000000" mask="url(#mask-2)" stroke-width="26" xlink:href="#path-1"></use>
        </g>
    </g>
</svg>